<?xml version="1.0" encoding="UTF-8"?>
<!DOCTYPE svg PUBLIC "-//W3C//DTD SVG 1.1//EN" "http://www.w3.org/Graphics/SVG/1.1/DTD/svg11.dtd">
<svg xmlns="http://www.w3.org/2000/svg" version="1.1" width="44px" height="46px" style="shape-rendering:geometricPrecision; text-rendering:geometricPrecision; image-rendering:optimizeQuality; fill-rule:evenodd; clip-rule:evenodd" xmlns:xlink="http://www.w3.org/1999/xlink">
<g><path style="opacity:0.852" fill="#352183" d="M 19.5,3.5 C 23.4748,3.48595 26.8082,4.81928 29.5,7.5C 28.5,7.5 27.5,7.5 26.5,7.5C 25.1667,7.16667 23.8333,6.83333 22.5,6.5C 21.0998,5.89992 20.0998,4.89992 19.5,3.5 Z"/></g>
<g><path style="opacity:1" fill="#3c230e" d="M 12.5,-0.5 C 13.1667,-0.5 13.8333,-0.5 14.5,-0.5C 16.6616,0.127626 18.3282,1.46096 19.5,3.5C 20.0998,4.89992 21.0998,5.89992 22.5,6.5C 20.5172,7.90217 18.8505,9.73551 17.5,12C 15.1902,12.4966 12.8568,12.6633 10.5,12.5C 9.83333,11.1667 8.83333,10.1667 7.5,9.5C 7.5,8.5 7.5,7.5 7.5,6.5C 7.64884,3.02642 9.31551,0.693085 12.5,-0.5 Z"/></g>
<g><path style="opacity:1" fill="#f9f8fa" d="M 22.5,6.5 C 23.8333,6.83333 25.1667,7.16667 26.5,7.5C 18.4381,16.129 17.7715,25.129 24.5,34.5C 20.7016,35.4834 16.7016,35.8168 12.5,35.5C 10.7745,33.7721 9.44112,31.7721 8.5,29.5C 7.08209,27.6921 5.08209,27.0254 2.5,27.5C 3.80208,25.9724 5.46875,24.9724 7.5,24.5C 7.5,23.8333 7.16667,23.5 6.5,23.5C 5.90862,19.0361 7.24195,15.3695 10.5,12.5C 12.8568,12.6633 15.1902,12.4966 17.5,12C 18.8505,9.73551 20.5172,7.90217 22.5,6.5 Z"/></g>
<g><path style="opacity:0.894" fill="#36248d" d="M 7.5,6.5 C 7.5,7.5 7.5,8.5 7.5,9.5C 2.99683,12.9863 0.996829,17.6529 1.5,23.5C 3.16667,23.5 4.83333,23.5 6.5,23.5C 7.16667,23.5 7.5,23.8333 7.5,24.5C 5.5,24.5 3.5,24.5 1.5,24.5C 1.26269,25.791 1.59603,26.791 2.5,27.5C 5.08209,27.0254 7.08209,27.6921 8.5,29.5C 6.71199,29.2148 5.04533,29.5481 3.5,30.5C 4.61248,32.4192 5.94581,34.0858 7.5,35.5C 13.6446,36.4902 19.9779,36.8235 26.5,36.5C 27.1667,36.5 27.5,36.8333 27.5,37.5C 20.825,37.3337 14.1583,37.5004 7.5,38C 5.47316,39.3957 5.13983,41.0624 6.5,43C 14.5,43.6667 22.5,43.6667 30.5,43C 31.7525,41.1722 31.7525,39.3388 30.5,37.5C 31.9587,37.4326 33.2921,37.7659 34.5,38.5C 34.6061,41.0786 33.9395,43.412 32.5,45.5C 23.5,45.5 14.5,45.5 5.5,45.5C 4.18523,44.333 3.51857,42.833 3.5,41C 4.12498,39.1595 4.29165,37.3261 4,35.5C 2.21166,33.24 0.711662,30.9066 -0.5,28.5C -0.5,24.5 -0.5,20.5 -0.5,16.5C 1.20511,12.437 3.87178,9.10368 7.5,6.5 Z"/></g>
<g><path style="opacity:0.874" fill="#3a2109" d="M 26.5,7.5 C 27.5,7.5 28.5,7.5 29.5,7.5C 34.3881,10.5531 37.8881,14.8864 40,20.5C 41.0113,21.3366 42.1779,21.67 43.5,21.5C 43.5,23.5 43.5,25.5 43.5,27.5C 42.3374,32.6632 39.3374,36.3299 34.5,38.5C 33.2921,37.7659 31.9587,37.4326 30.5,37.5C 29.5,37.5 28.5,37.5 27.5,37.5C 27.5,36.8333 27.1667,36.5 26.5,36.5C 26.1667,35.5 25.5,34.8333 24.5,34.5C 17.7715,25.129 18.4381,16.129 26.5,7.5 Z"/></g>
<g><path style="opacity:1" fill="#70420b" d="M 11.5,2.5 C 16.7144,1.71065 18.7144,3.71065 17.5,8.5C 16.8408,5.17628 14.8408,3.84294 11.5,4.5C 11.0807,7.32454 12.0807,9.49121 14.5,11C 12.4295,11.3787 10.9295,10.5453 10,8.5C 9.25164,6.15994 9.75164,4.15994 11.5,2.5 Z"/></g>
<g><path style="opacity:1" fill="#7a480d" d="M 35.5,23.5 C 34.8826,23.6107 34.3826,23.944 34,24.5C 33.5014,28.1516 33.3347,31.8183 33.5,35.5C 29.9459,37.2022 27.1125,36.2022 25,32.5C 19.796,24.0528 20.796,16.3861 28,9.5C 32.5857,12.0922 35.7523,15.9256 37.5,21C 36.9444,22.0111 36.2778,22.8444 35.5,23.5 Z"/></g>
<g><path style="opacity:1" fill="#d0c7f5" d="M 7.5,9.5 C 8.83333,10.1667 9.83333,11.1667 10.5,12.5C 7.24195,15.3695 5.90862,19.0361 6.5,23.5C 4.83333,23.5 3.16667,23.5 1.5,23.5C 0.996829,17.6529 2.99683,12.9863 7.5,9.5 Z"/></g>
<g><path style="opacity:1" fill="#a0611c" d="M 35.5,23.5 C 37.3638,24.8204 39.0305,26.4871 40.5,28.5C 39.7542,29.7362 39.4208,31.0695 39.5,32.5C 37.857,32.5198 36.5237,31.8532 35.5,30.5C 34.4063,31.868 34.7397,33.0347 36.5,34C 35.7562,35.0386 34.7562,35.5386 33.5,35.5C 33.3347,31.8183 33.5014,28.1516 34,24.5C 34.3826,23.944 34.8826,23.6107 35.5,23.5 Z"/></g>
<g><path style="opacity:1" fill="#8a7dc7" d="M 7.5,24.5 C 5.46875,24.9724 3.80208,25.9724 2.5,27.5C 1.59603,26.791 1.26269,25.791 1.5,24.5C 3.5,24.5 5.5,24.5 7.5,24.5 Z"/></g>
<g><path style="opacity:1" fill="#d6cdfa" d="M 8.5,29.5 C 9.44112,31.7721 10.7745,33.7721 12.5,35.5C 10.8333,35.5 9.16667,35.5 7.5,35.5C 5.94581,34.0858 4.61248,32.4192 3.5,30.5C 5.04533,29.5481 6.71199,29.2148 8.5,29.5 Z"/></g>
<g><path style="opacity:1" fill="#8f83bb" d="M 24.5,34.5 C 25.5,34.8333 26.1667,35.5 26.5,36.5C 19.9779,36.8235 13.6446,36.4902 7.5,35.5C 9.16667,35.5 10.8333,35.5 12.5,35.5C 16.7016,35.8168 20.7016,35.4834 24.5,34.5 Z"/></g>
<g><path style="opacity:1" fill="#efedf5" d="M 27.5,37.5 C 28.5,37.5 29.5,37.5 30.5,37.5C 31.7525,39.3388 31.7525,41.1722 30.5,43C 22.5,43.6667 14.5,43.6667 6.5,43C 5.13983,41.0624 5.47316,39.3957 7.5,38C 14.1583,37.5004 20.825,37.3337 27.5,37.5 Z"/></g>
<g><path style="opacity:1" fill="#5e4ea4" d="M 19.5,40.5 C 22.0009,40.5109 22.1676,41.1776 20,42.5C 19.5357,41.9056 19.369,41.2389 19.5,40.5 Z"/></g>
<g><path style="opacity:1" fill="#5e4ea4" d="M 25.5,40.5 C 28.0009,40.5109 28.1676,41.1776 26,42.5C 25.5357,41.9056 25.369,41.2389 25.5,40.5 Z"/></g>
</svg>
